<?xml version="1.0" standalone="no"?>
<!DOCTYPE svg PUBLIC "-//W3C//DTD SVG 20010904//EN"
 "http://www.w3.org/TR/2001/REC-SVG-20010904/DTD/svg10.dtd">
<svg version="1.0" xmlns="http://www.w3.org/2000/svg"
 width="796.000000pt" height="796.000000pt" viewBox="0 0 796.000000 796.000000"
 preserveAspectRatio="xMidYMid meet">
<metadata>
Created by potrace 1.14, written by Peter Selinger 2001-2017
</metadata>
<g transform="translate(0.000000,796.000000) scale(0.100000,-0.100000)"
fill="#000000" stroke="none">
<path d="M3748 7955 c-1 -2 -46 -6 -98 -9 -52 -3 -104 -8 -115 -10 -11 -2 -47
-7 -80 -11 -123 -15 -185 -25 -225 -35 -19 -5 -51 -12 -70 -15 -134 -22 -491
-130 -675 -205 -129 -52 -430 -203 -559 -281 -490 -295 -916 -700 -1246 -1185
-49 -73 -90 -135 -90 -137 0 -3 -23 -43 -51 -89 -117 -188 -261 -511 -348
-778 -73 -224 -138 -519 -156 -705 -4 -33 -8 -66 -10 -73 -26 -78 -26 -729 -1
-882 2 -14 7 -52 11 -85 22 -194 107 -570 162 -715 3 -8 7 -19 9 -25 44 -162
222 -552 347 -760 98 -162 291 -441 337 -485 3 -3 32 -36 65 -75 240 -282 533
-541 830 -734 61 -39 115 -76 122 -81 7 -6 14 -10 17 -10 2 0 40 -21 83 -46
323 -191 789 -368 1173 -443 30 -6 66 -14 80 -17 14 -3 43 -7 65 -10 22 -2 51
-7 65 -10 14 -4 44 -8 68 -10 24 -2 56 -6 70 -9 142 -26 751 -27 887 -1 11 2
47 7 80 10 33 4 71 9 85 11 14 2 45 7 70 10 25 3 53 8 62 11 16 5 39 10 88 19
69 13 278 68 376 98 194 62 354 126 549 222 340 168 556 309 859 565 122 103
372 357 447 455 13 17 28 35 34 41 10 11 17 19 101 129 70 90 178 254 251 379
227 387 382 800 472 1256 21 107 25 129 37 235 3 33 8 63 10 66 10 17 19 247
19 459 -1 237 -6 346 -26 484 -5 42 -12 90 -13 108 -2 18 -7 44 -10 58 -3 14
-8 36 -10 50 -13 79 -21 118 -52 243 -38 156 -79 290 -119 397 -128 339 -270
618 -458 895 -34 50 -64 92 -67 95 -3 3 -32 41 -65 85 -33 44 -62 82 -65 85
-3 3 -30 34 -60 70 -73 86 -156 174 -265 281 -112 109 -121 117 -275 241 -159
127 -140 113 -245 184 -394 268 -827 463 -1275 573 -216 54 -363 79 -615 107
-63 6 -581 15 -587 9z"/>
</g>
</svg>
